<?xml version="1.0" encoding="utf-8"?>
<!-- Generator: Adobe Illustrator 17.1.0, SVG Export Plug-In . SVG Version: 6.00 Build 0)  -->
<!DOCTYPE svg PUBLIC "-//W3C//DTD SVG 1.1//EN" "http://www.w3.org/Graphics/SVG/1.1/DTD/svg11.dtd">
<svg version="1.1" id="Layer_1" xmlns="http://www.w3.org/2000/svg" xmlns:xlink="http://www.w3.org/1999/xlink" x="0px" y="0px"
	 viewBox="0 0 730 218.3" enable-background="new 0 0 730 218.3" xml:space="preserve">
<path fill="none" stroke="#2E398C" stroke-miterlimit="10" d="M1005.4,476.4h-16.5 M997.3,484.5l8.1-8.1l-8.2-8.2"/>
<path fill="none" stroke="#E6292B" stroke-miterlimit="10" d="M1005.4,529.7h-16.5 M997.3,537.8l8.1-8.1l-8.2-8.2"/>
<path fill="none" stroke="#08A650" stroke-miterlimit="10" d="M1005.4,434.6h-16.5 M997.3,442.8l8.1-8.1l-8.2-8.2"/>
<path fill="#FFFFFF" d="M1053.2,428.1c-0.8,0.3-1.6,0.6-2.5,0.7c0.9-0.5,1.6-1.4,1.9-2.4c-0.8,0.5-1.7,0.8-2.7,1
	c-0.8-0.8-1.9-1.4-3.1-1.4c-2.4,0-4.3,1.9-4.3,4.3c0,0.3,0,0.7,0.1,1c-3.6-0.2-6.7-1.9-8.8-4.5c-0.4,0.6-0.6,1.4-0.6,2.2
	c0,1.5,0.8,2.8,1.9,3.6c-0.7,0-1.4-0.2-1.9-0.5v0.1c0,2.1,1.5,3.8,3.4,4.2c-0.4,0.1-0.7,0.2-1.1,0.2c-0.3,0-0.5,0-0.8-0.1
	c0.5,1.7,2.1,2.9,4,3c-1.5,1.1-3.3,1.8-5.3,1.8c-0.4,0-0.7,0-1-0.1c1.9,1.2,4.2,1.9,6.6,1.9c7.9,0,12.2-6.5,12.2-12.2
	c0-0.2,0-0.4,0-0.6C1051.9,429.7,1052.6,429,1053.2,428.1"/>
<path fill="none" stroke="#FFFFFF" stroke-miterlimit="10" d="M1032.2,503.2l10.5,8.5l10.5-8.5 M1053.7,518.7h-22v-16h22V518.7z"/>
<path fill="none" stroke="#FFFFFF" stroke-miterlimit="10" d="M1051,533.4h-16.5 M1042.8,541.6l8.1-8.1l-8.2-8.2"/>
<path fill="#FFFFFF" d="M1090.1,419.4l8.3,5.8h-0.8h-1v1v12h-3v-6v-1h-1h-5h-1v1v6h-3v-12v-1h-1h-0.8L1090.1,419.4z M1090.1,418.2
	l-11.5,8h4v13h5v-7h5v7h5v-13h4L1090.1,418.2z"/>
<path fill="none" stroke="#FFFFFF" stroke-width="0.968" stroke-miterlimit="10" d="M1031.6,483.6h10.6 M1031.6,478.7h22.3
	 M1031.6,473.9h22.3 M1031.6,469.1h22.3"/>
<polygon fill="#FFFFFF" points="134.5,0 67.3,46.1 0,0 0,30.2 45.3,61.1 0,92.1 0,122.3 67.3,76.2 134.5,122.3 134.5,92.1 
	89.3,61.1 134.5,30.2 "/>
<polygon fill="#FFFFFF" points="109.7,122.3 109.7,193.3 79.7,193.3 79.7,153.9 54.8,153.9 54.8,193.3 24.9,193.3 24.9,122.3 
	0,122.3 0,218.2 134.5,218.2 134.5,122.3 "/>
<polygon fill="#FFFFFF" points="163.4,0 196,0 196,8.1 173,8.1 173,17.4 194.1,17.4 194.1,24.9 173,24.9 173,35.6 196.5,35.6 
	196.5,43.7 163.4,43.7 "/>
<path fill="#FFFFFF" d="M200.9,21.8c0.5-8.1,7.8-10.6,14.9-10.6c6.3,0,13.9,1.4,13.9,9v16.4c0,2.9,0.3,5.7,1.1,7h-8.8
	c-0.3-1-0.6-2-0.6-3.1c-2.8,2.9-6.8,3.9-10.6,3.9c-6,0-10.8-3-10.8-9.5c0-7.2,5.4-8.9,10.8-9.6c5.3-0.8,10.3-0.6,10.3-4.2
	c0-3.7-2.6-4.3-5.6-4.3c-3.3,0-5.4,1.3-5.7,4.8H200.9z M221,28.2c-1.5,1.3-4.5,1.3-7.2,1.8c-2.7,0.5-5.1,1.5-5.1,4.6
	c0,3.2,2.5,4,5.3,4c6.8,0,7-5.4,7-7.3V28.2z"/>
<path fill="#FFFFFF" d="M234.2,12h8.3v5.9h0.1c1.6-4,5.9-6.7,10.1-6.7c0.6,0,1.3,0.1,1.9,0.3v8.1c-0.8-0.2-2.1-0.3-3.1-0.3
	c-6.4,0-8.6,4.6-8.6,10.1v14.2h-8.7V12z"/>
<rect x="258.1" y="0" fill="#FFFFFF" width="8.7" height="43.6"/>
<path fill="#FFFFFF" d="M289,47.6c-1.9,5.1-4.9,7.2-10.9,7.2c-1.8,0-3.5-0.1-5.3-0.3v-7.2c1.6,0.1,3.4,0.4,5.1,0.3
	c3-0.3,4-3.4,3-5.9L269.7,12h9.3l7.2,21.6h0.1l6.9-21.6h9L289,47.6z"/>
<polygon fill="#FFFFFF" points="319.6,0 352.3,0 352.3,8.1 329.2,8.1 329.2,17.4 350.4,17.4 350.4,24.9 329.2,24.9 329.2,35.6 
	352.8,35.6 352.8,43.7 319.6,43.7 "/>
<polygon fill="#FFFFFF" points="366.7,27 356.3,12 366.2,12 371.7,20.3 377.2,12 386.8,12 376.4,26.8 388.1,43.7 378.2,43.7 
	371.6,33.7 365,43.7 355.3,43.7 "/>
<path fill="#FFFFFF" d="M409.1,23.2c-0.6-3.5-2.8-5.4-6.4-5.4c-5.6,0-7.4,5.6-7.4,10.3c0,4.5,1.8,10,7.2,10c4,0,6.4-2.6,6.9-6.4h8.4
	c-1.1,8.4-6.9,13-15.2,13c-9.5,0-16-6.7-16-16.2c0-9.8,5.9-17.1,16.1-17.1c7.5,0,14.3,3.9,14.9,12H409.1z"/>
<path fill="#FFFFFF" d="M429.4,30c0.2,5.5,2.9,8,7.8,8c3.5,0,6.3-2.1,6.8-4.1h7.6c-2.4,7.5-7.6,10.6-14.8,10.6
	c-10,0-16.1-6.8-16.1-16.6c0-9.5,6.5-16.7,16.1-16.7c10.8,0,16,9,15.3,18.8H429.4z M443.5,24.5c-0.8-4.4-2.7-6.7-6.9-6.7
	c-5.5,0-7.1,4.3-7.2,6.7H443.5z"/>
<rect x="455.9" y="0" fill="#FFFFFF" width="8.7" height="43.6"/>
<rect x="469.3" y="0" fill="#FFFFFF" width="8.7" height="43.6"/>
<path fill="#FFFFFF" d="M490.5,30c0.2,5.5,2.9,8,7.8,8c3.5,0,6.3-2.1,6.8-4.1h7.6c-2.4,7.5-7.6,10.6-14.8,10.6
	c-10,0-16.1-6.8-16.1-16.6c0-9.5,6.5-16.7,16.1-16.7c10.8,0,16,9,15.3,18.8H490.5z M504.6,24.5c-0.8-4.4-2.7-6.7-6.9-6.7
	c-5.5,0-7.1,4.3-7.2,6.7H504.6z"/>
<path fill="#FFFFFF" d="M517.1,12h8.3v4.4h0.2c2.2-3.5,6-5.3,9.7-5.3c9.2,0,11.6,5.2,11.6,13v19.4h-8.7V25.8c0-5.2-1.5-7.8-5.6-7.8
	c-4.7,0-6.7,2.6-6.7,9v16.6h-8.7V12z"/>
<path fill="#FFFFFF" d="M573.1,23.2c-0.5-3.5-2.8-5.4-6.4-5.4c-5.6,0-7.4,5.6-7.4,10.3c0,4.5,1.8,10,7.2,10c4,0,6.4-2.6,6.9-6.4h8.4
	c-1.1,8.4-6.9,13-15.2,13c-9.5,0-16-6.7-16-16.2c0-9.8,5.9-17.1,16.1-17.1c7.5,0,14.3,3.9,14.9,12H573.1z"/>
<path fill="#FFFFFF" d="M593.6,30c0.2,5.5,2.9,8,7.8,8c3.5,0,6.3-2.1,6.8-4.1h7.6c-2.4,7.5-7.6,10.6-14.8,10.6
	c-10,0-16.1-6.8-16.1-16.6c0-9.5,6.5-16.7,16.1-16.7c10.8,0,16,9,15.3,18.8H593.6z M607.7,24.5c-0.8-4.4-2.7-6.7-6.9-6.7
	c-5.5,0-7.1,4.3-7.2,6.7H607.7z"/>
<path fill="#FFFFFF" d="M194.1,68.3c-1.2-6.2-6.2-9.3-12.2-9.3c-10.4,0-14.8,8.6-14.8,17.7c0,10,4.4,18.3,14.9,18.3
	c7.6,0,12-5.4,12.6-12.6h5.8c-1.1,10.9-7.9,17.5-18.9,17.5c-13.6,0-20.2-10-20.2-22.7c0-12.7,7.2-23,20.7-23c9.1,0,16.6,4.9,18,14.2
	H194.1z"/>
<path fill="#FFFFFF" d="M232.3,88.7c-1.4,7-6.4,10.8-13.5,10.8c-10.1,0-14.9-7-15.2-16.6c0-9.5,6.2-16.4,14.9-16.4
	c11.2,0,14.6,10.5,14.3,18.1h-23.7c-0.2,5.5,2.9,10.4,9.8,10.4c4.3,0,7.3-2.1,8.2-6.2H232.3z M227.3,79.9c-0.2-5-4-8.9-9.1-8.9
	c-5.4,0-8.7,4.1-9,8.9H227.3z"/>
<path fill="#FFFFFF" d="M236.5,67.2h4.9v5h0.1c2.2-3.9,5.7-5.7,10.3-5.7c8.3,0,10.9,4.8,10.9,11.6v20.8h-5.2V77.4
	c0-3.9-2.4-6.4-6.4-6.4c-6.3,0-9.4,4.2-9.4,9.9v17.9h-5.2V67.2z"/>
<path fill="#FFFFFF" d="M276,67.2h6.3v4.6H276v19.6c0,2.4,0.7,2.8,3.9,2.8h2.4v4.6h-4c-5.4,0-7.5-1.1-7.5-6.9V71.8h-5.4v-4.6h5.4
	v-9.5h5.2V67.2z"/>
<path fill="#FFFFFF" d="M286.3,67.2h4.9v6.7h0.1c2.5-5.1,6-7.6,11.6-7.4v5.5c-8.4,0-11.4,4.8-11.4,12.8v14.1h-5.2V67.2z"/>
<path fill="#FFFFFF" d="M332.7,88.7c-1.4,7-6.4,10.8-13.5,10.8c-10.1,0-14.9-7-15.2-16.6c0-9.5,6.2-16.4,14.9-16.4
	c11.2,0,14.6,10.5,14.3,18.1h-23.7c-0.2,5.5,2.9,10.4,9.8,10.4c4.3,0,7.3-2.1,8.2-6.2H332.7z M327.7,79.9c-0.2-5-4-8.9-9.1-8.9
	c-5.4,0-8.7,4.1-9,8.9H327.7z"/>
<path fill="#FFFFFF" d="M353.9,71.8h-5.3v-4.6h5.3v-4.7c0-5.1,3.1-7.8,8.7-7.8c1,0,2.4,0.2,3.4,0.5v4.5c-0.9-0.3-2-0.4-2.9-0.4
	c-2.5,0-4,0.8-4,3.5v4.4h6.1v4.6h-6.1v27h-5.2V71.8z"/>
<path fill="#FFFFFF" d="M381.6,66.4c10,0,15.3,7.3,15.3,16.6c0,9.2-5.3,16.5-15.3,16.5c-10,0-15.3-7.3-15.3-16.5
	C366.3,73.7,371.6,66.4,381.6,66.4 M381.6,94.9c5.4,0,9.8-4.3,9.8-11.9c0-7.7-4.4-12-9.8-12c-5.4,0-9.8,4.3-9.8,12
	C371.8,90.6,376.2,94.9,381.6,94.9"/>
<path fill="#FFFFFF" d="M400.8,67.2h4.9v6.7h0.1c2.5-5.1,6-7.6,11.6-7.4v5.5c-8.4,0-11.4,4.8-11.4,12.8v14.1h-5.2V67.2z"/>
<rect x="433.9" y="55.1" fill="#FFFFFF" width="5.8" height="43.6"/>
<path fill="#FFFFFF" d="M444.4,67.2h4.9v5h0.1c2.2-3.9,5.7-5.7,10.3-5.7c8.3,0,10.9,4.8,10.9,11.6v20.8h-5.2V77.4
	c0-3.9-2.4-6.4-6.4-6.4c-6.3,0-9.4,4.2-9.4,9.9v17.9h-5.2V67.2z"/>
<path fill="#FFFFFF" d="M479.8,88.8c0.2,4.6,4.2,6.1,8.5,6.1c3.2,0,7.6-0.7,7.6-4.7c0-4-5.1-4.7-10.3-5.9
	c-5.1-1.2-10.3-2.9-10.3-8.9c0-6.4,6.3-9,11.8-9c7,0,12.5,2.2,13,9.9h-5.2c-0.4-4-3.9-5.3-7.3-5.3c-3.1,0-6.7,0.9-6.7,4
	c0,3.7,5.5,4.3,10.3,5.5c5.2,1.2,10.3,2.9,10.3,9c0,7.5-7,10-13.4,10c-7.1,0-13.1-2.9-13.4-10.7H479.8z"/>
<path fill="#FFFFFF" d="M505.5,67.2h5.2v4.3h0.1c1.7-3.5,5.7-5,10.1-5c9.7,0,14.6,7.7,14.6,16.6c0,8.9-4.8,16.4-14.4,16.4
	c-3.2,0-7.9-1.2-10.2-5h-0.1v16.3h-5.2V67.2z M520.2,71c-7,0-9.7,6-9.7,11.9c0,6.2,2.8,12,10,12c7.1,0,9.5-6.1,9.5-12.2
	C530,76.8,526.9,71,520.2,71"/>
<path fill="#FFFFFF" d="M544.8,61.5h-5.2v-6.4h5.2V61.5z M539.6,67.2h5.2v31.6h-5.2V67.2z"/>
<path fill="#FFFFFF" d="M549.7,67.2h4.9v6.7h0.1c2.5-5.1,6-7.6,11.6-7.4v5.5c-8.4,0-11.4,4.8-11.4,12.8v14.1h-5.2V67.2z"/>
<path fill="#FFFFFF" d="M597.5,98.7c-0.9,0.6-2.1,0.9-3.7,0.9c-2.7,0-4.4-1.5-4.4-4.9c-2.9,3.4-6.7,4.9-11.1,4.9
	c-5.7,0-10.5-2.6-10.5-8.9c0-7.2,5.3-8.7,10.7-9.7c5.7-1.1,10.6-0.7,10.6-4.6c0-4.5-3.7-5.3-7-5.3c-4.4,0-7.6,1.3-7.9,6H569
	c0.3-7.8,6.4-10.6,13.4-10.6c5.7,0,11.9,1.3,11.9,8.7v16.3c0,2.4,0,3.5,1.7,3.5c0.4,0,0.9-0.1,1.6-0.3V98.7z M589.1,82.5
	c-2,1.5-5.9,1.5-9.4,2.1c-3.4,0.6-6.4,1.8-6.4,5.7c0,3.4,2.9,4.6,6.1,4.6c6.8,0,9.7-4.3,9.7-7.2V82.5z"/>
<path fill="#FFFFFF" d="M608.1,67.2h6.3v4.6h-6.3v19.6c0,2.4,0.7,2.8,3.9,2.8h2.4v4.6h-4c-5.4,0-7.5-1.1-7.5-6.9V71.8h-5.4v-4.6h5.4
	v-9.5h5.2V67.2z"/>
<path fill="#FFFFFF" d="M623.3,61.5h-5.2v-6.4h5.2V61.5z M618.1,67.2h5.2v31.6h-5.2V67.2z"/>
<path fill="#FFFFFF" d="M642.5,66.4c10,0,15.3,7.3,15.3,16.6c0,9.2-5.3,16.5-15.3,16.5c-10,0-15.3-7.3-15.3-16.5
	C627.2,73.7,632.5,66.4,642.5,66.4 M642.5,94.9c5.4,0,9.8-4.3,9.8-11.9c0-7.7-4.4-12-9.8-12c-5.4,0-9.8,4.3-9.8,12
	C632.7,90.6,637.1,94.9,642.5,94.9"/>
<path fill="#FFFFFF" d="M661.5,67.2h4.9v5h0.1c2.2-3.9,5.7-5.7,10.3-5.7c8.3,0,10.9,4.8,10.9,11.6v20.8h-5.2V77.4
	c0-3.9-2.4-6.4-6.4-6.4c-6.3,0-9.4,4.2-9.4,9.9v17.9h-5.2V67.2z"/>
<path fill="#FFFFFF" d="M720.9,98.7c-0.9,0.6-2.1,0.9-3.7,0.9c-2.7,0-4.4-1.5-4.4-4.9c-2.9,3.4-6.7,4.9-11.1,4.9
	c-5.7,0-10.5-2.6-10.5-8.9c0-7.2,5.3-8.7,10.7-9.7c5.7-1.1,10.6-0.7,10.6-4.6c0-4.5-3.7-5.3-7-5.3c-4.4,0-7.6,1.3-7.9,6h-5.2
	c0.3-7.8,6.4-10.6,13.4-10.6c5.7,0,11.9,1.3,11.9,8.7v16.3c0,2.4,0,3.5,1.7,3.5c0.4,0,0.9-0.1,1.6-0.3V98.7z M712.5,82.5
	c-2,1.5-5.9,1.5-9.4,2.1c-3.4,0.6-6.4,1.8-6.4,5.7c0,3.4,2.9,4.6,6.1,4.6c6.8,0,9.7-4.3,9.7-7.2V82.5z"/>
<rect x="724.4" y="55.1" fill="#FFFFFF" width="5.2" height="43.6"/>
<polygon fill="#FFFFFF" points="163.4,110.2 169.2,110.2 169.2,149 192.3,149 192.3,153.9 163.4,153.9 "/>
<path fill="#FFFFFF" d="M222.3,143.9c-1.4,7-6.4,10.8-13.5,10.8c-10.1,0-14.9-7-15.2-16.6c0-9.5,6.2-16.4,14.9-16.4
	c11.2,0,14.6,10.5,14.3,18.1h-23.7c-0.2,5.5,2.9,10.4,9.8,10.4c4.3,0,7.3-2.1,8.2-6.2H222.3z M217.3,135.1c-0.2-5-4-8.9-9.1-8.9
	c-5.4,0-8.7,4.1-9,8.9H217.3z"/>
<path fill="#FFFFFF" d="M255.7,153.8c-0.9,0.6-2.1,0.9-3.7,0.9c-2.7,0-4.4-1.5-4.4-4.9c-2.9,3.4-6.7,4.9-11.1,4.9
	c-5.7,0-10.5-2.6-10.5-8.9c0-7.2,5.3-8.7,10.7-9.7c5.7-1.1,10.6-0.7,10.6-4.6c0-4.5-3.7-5.3-7-5.3c-4.4,0-7.6,1.3-7.9,6h-5.2
	c0.3-7.8,6.4-10.6,13.4-10.6c5.7,0,11.9,1.3,11.9,8.7v16.3c0,2.4,0,3.5,1.7,3.5c0.4,0,0.9-0.1,1.6-0.3V153.8z M247.2,137.6
	c-2,1.5-5.9,1.5-9.4,2.1c-3.4,0.6-6.4,1.8-6.4,5.7c0,3.4,2.9,4.6,6.1,4.6c6.8,0,9.7-4.3,9.7-7.2V137.6z"/>
<path fill="#FFFFFF" d="M259.7,122.3h4.9v6.7h0.1c2.5-5.1,6-7.6,11.6-7.4v5.5c-8.4,0-11.4,4.8-11.4,12.8v14.1h-5.2V122.3z"/>
<path fill="#FFFFFF" d="M280,122.3h4.9v5h0.1c2.2-3.9,5.7-5.7,10.3-5.7c8.3,0,10.9,4.8,10.9,11.6v20.8H301v-21.4
	c0-3.9-2.4-6.4-6.4-6.4c-6.3,0-9.4,4.2-9.4,9.9v17.8H280V122.3z"/>
<path fill="#FFFFFF" d="M315.9,116.6h-5.2v-6.4h5.2V116.6z M310.7,122.3h5.2v31.6h-5.2V122.3z"/>
<path fill="#FFFFFF" d="M320.9,122.3h4.9v5h0.1c2.2-3.9,5.7-5.7,10.3-5.7c8.3,0,10.9,4.8,10.9,11.6v20.8h-5.2v-21.4
	c0-3.9-2.4-6.4-6.4-6.4c-6.3,0-9.4,4.2-9.4,9.9v17.8h-5.2V122.3z"/>
<path fill="#FFFFFF" d="M379.7,151.2c0,10.3-4.7,15.5-14.7,15.5c-5.9,0-12.8-2.4-13.1-9.3h5.2c0.2,3.8,4.8,5.1,8.2,5.1
	c6.8,0,9.5-4.9,9.5-12v-2.1h-0.1c-1.7,3.9-5.9,5.7-9.8,5.7c-9.4,0-14.1-7.4-14.1-16c0-7.5,3.7-16.7,14.6-16.7c4,0,7.5,1.8,9.4,5.3
	h-0.1h0.1v-4.5h4.9V151.2z M374.6,137.4c0-5.6-2.4-11.3-9-11.3c-6.7,0-9.4,5.4-9.4,11.5c0,5.7,2.1,12,8.9,12
	C372,149.7,374.6,143.4,374.6,137.4"/>
<rect x="1443.5" y="145.8" fill="#30348B" width="116" height="30.7"/>
<text transform="matrix(1 0 0 1 1582.6182 167.0073)" fill="#FFFFFF" font-family="'ArialMT'" font-size="20">30 x 116</text>
<text transform="matrix(1 0 0 1 982.9112 141.1457)"><tspan x="0" y="0" fill="#FFFFFF" font-family="'Arial-BoldMT'" font-size="20">Connect with us</tspan><tspan x="0" y="24" fill="#FFFFFF" font-family="'Arial-BoldMT'" font-size="20">Arial Bold</tspan><tspan x="0" y="48" fill="#FFFFFF" font-family="'Arial-BoldMT'" font-size="20">20pt</tspan></text>
<text transform="matrix(1 0 0 1 1194.796 137.7604)"><tspan x="0" y="0" fill="#FFFFFF" font-family="'ArialMT'" font-size="20">V</tspan><tspan x="13" y="0" fill="#FFFFFF" font-family="'ArialMT'" font-size="20">isit our National </tspan><tspan x="0" y="24" fill="#FFFFFF" font-family="'ArialMT'" font-size="20">Centre for inspiring</tspan><tspan x="0" y="48" fill="#FFFFFF" font-family="'ArialMT'" font-size="20">Arial Regular</tspan><tspan x="0" y="72" fill="#FFFFFF" font-family="'ArialMT'" font-size="20">20pt</tspan><tspan x="0" y="96" fill="#FFFFFF" font-family="'ArialMT'" font-size="20">24pt leading</tspan></text>
<text transform="matrix(1 0 0 1 982.9112 283.1395)"><tspan x="0" y="0" fill="#FFFFFF" font-family="'ArialMT'" font-size="14">Arrange tailor-made training </tspan><tspan x="0" y="16.8" fill="#FFFFFF" font-family="'ArialMT'" font-size="14">nationwide</tspan><tspan x="0" y="33.6" fill="#FFFFFF" font-family="'ArialMT'" font-size="14">Arial Regular</tspan><tspan x="0" y="50.4" fill="#FFFFFF" font-family="'ArialMT'" font-size="14">14pt</tspan><tspan x="0" y="67.2" fill="#FFFFFF" font-family="'ArialMT'" font-size="14">17pt leading</tspan></text>
<text transform="matrix(1 0 0 1 1472.0341 167.0073)"><tspan x="0" y="0" fill="#FFFFFF" font-family="'ArialMT'" font-size="14">I’m a button</tspan><tspan x="0" y="16.8" fill="#FFFFFF" font-family="'ArialMT'" font-size="14">Arial Regular</tspan><tspan x="0" y="33.6" fill="#FFFFFF" font-family="'ArialMT'" font-size="14">14pt</tspan></text>
<text transform="matrix(1 0 0 1 1411.4142 254.2858)"><tspan x="0" y="0" fill="#FFFFFF" font-family="'ArialMT'" font-size="12">© 2014 Early Excellence Limited</tspan><tspan x="0" y="14.4" fill="#FFFFFF" font-family="'ArialMT'" font-size="12">Arial Reg</tspan><tspan x="0" y="28.8" fill="#FFFFFF" font-family="'ArialMT'" font-size="12">12pt</tspan></text>
</svg>
